<svg xmlns="http://www.w3.org/2000/svg" xmlns:xlink="http://www.w3.org/1999/xlink" width="280" zoomAndPan="magnify" viewBox="0 0 210 209.999996" height="280" preserveAspectRatio="xMidYMid meet" version="1.0"><defs><clipPath id="1cc8d0e923"><path d="M 13.34375 13.34375 L 196.34375 13.34375 L 196.34375 196.34375 L 13.34375 196.34375 Z M 13.34375 13.34375 " clip-rule="nonzero"/></clipPath></defs><rect x="-21" width="252" fill="#ffffff" y="-21" height="251.999995" fill-opacity="1"/><rect x="-21" width="252" fill="#e6dcd5" y="-21" height="251.999995" fill-opacity="1"/><g clip-path="url(#1cc8d0e923)"><path fill="#bfbdbc" d="M 196.339844 104.84375 C 196.339844 155.375 155.375 196.339844 104.84375 196.339844 C 54.3125 196.339844 13.347656 155.375 13.347656 104.84375 C 13.347656 54.308594 54.3125 13.34375 104.84375 13.34375 C 155.375 13.34375 196.339844 54.308594 196.339844 104.84375 " fill-opacity="1" fill-rule="nonzero"/></g><path fill="#ffffff" d="M 137.347656 75.917969 C 137.347656 93.933594 122.742188 108.539062 104.726562 108.539062 C 86.710938 108.539062 72.105469 93.933594 72.105469 75.917969 C 72.105469 57.902344 86.710938 43.300781 104.726562 43.300781 C 122.742188 43.300781 137.347656 57.902344 137.347656 75.917969 " fill-opacity="1" fill-rule="nonzero"/><path fill="#ffffff" d="M 104.726562 191.996094 C 127.808594 191.996094 148.890625 183.445312 164.988281 169.34375 C 159.992188 136.714844 145.277344 114.074219 104.726562 114.074219 C 65.3125 114.074219 50.058594 136.8125 44.699219 169.554688 C 60.765625 183.53125 81.757812 191.996094 104.726562 191.996094 " fill-opacity="1" fill-rule="nonzero"/></svg>