<svg xmlns="http://www.w3.org/2000/svg" xml:space="preserve" id="Layer_1" x="0" y="0" style="enable-background:new 0 0 2160 2160" version="1.1" viewBox="0 0 2160 2160">
  <style>
    .st0{fill:#fff}.st2{fill:#f6a21d}.st4{fill:#feffff}.st5{fill:#f37321}.st6{fill:#414042}
  </style>
  <path d="M3708.545 1150.776h-1080v-554.08h1080zM-999.202 1975.297h-2160v-2160h2160z" class="st0"/>
  <path d="M3708.545 1679.44h-1080v-560.38h1080z"/>
  <linearGradient id="SVGID_1_" x1="2971.654" x2="2975.259" y1="870.729" y2="870.729" gradientUnits="userSpaceOnUse">
    <stop offset="0" style="stop-color:#000"/>
    <stop offset="1" style="stop-color:#58595b"/>
  </linearGradient>
  <path d="m2971.65 870.58 3.6.29c-1.22 0-2.42-.09-3.6-.29z" style="fill:url(#SVGID_1_)"/>
  <path d="M754.08 906.84H518.64c-35.24 0-64.08 28.84-64.08 64.08V1215.44c0 31.83 23.55 58.47 54.09 63.28 83.94-5.71 159.45-42.13 215.41-98.04 48.43-48.43 82.23-111.6 94.09-182.14v-27.61c0-31.83-23.5-58.42-54.04-63.28l-10.03-.81z" class="st2"/>
  <linearGradient id="SVGID_2_" x1="454.565" x2="818.155" y1="1093.571" y2="1093.571" gradientUnits="userSpaceOnUse">
    <stop offset="0" style="stop-color:#f15a29"/>
    <stop offset="1" style="stop-color:#f7941d"/>
  </linearGradient>
  <path d="M818.16 970.91v244.51c0 35.24-28.84 64.08-64.08 64.08H518.64l-9.99-.8c-30.54-4.81-54.09-31.45-54.09-63.28v-26.33c11.69-71.07 45.6-134.67 94.3-183.42 55.91-55.91 131.41-92.27 215.25-98.04 30.55 4.87 54.05 31.46 54.05 63.28z" style="fill:url(#SVGID_2_)"/>
  <path d="M772.45 1004.24c-2.46-1.98-5.61-2.67-8.7-1.98l-127.62 29.16-127.14-29.21c-3.04-.75-6.19 0-8.65 1.92-2.46 1.98-3.9 4.91-3.9 8.01v193.78c0 3.31 1.55 6.35 4.16 8.38 1.87 1.39 4.11 2.14 6.35 2.14.96 0 1.87-.11 2.83-.32l48.49-13.14c4.91-1.33 8.28-5.82 8.22-10.89l-.27-22.27c0-1.98.96-3.84 2.56-4.97l63.17-42.88v50.14c0 2.24 1.07 4.38 2.83 5.77 1.33.96 2.83 1.5 4.43 1.5.64 0 1.28-.11 1.92-.27l50.78-13.72c5.98-1.66 10.15-7.1 10.04-13.35l-.27-23.28 66.21-38.18c5.18-2.99 8.38-8.54 8.38-14.47v-63.86c.02-3.15-1.37-6.09-3.82-8.01zM563.87 1157.6c-4.11 2.78-6.51 7.37-6.46 12.34l.27 22.27c0 1.07-.69 2.03-1.71 2.3l-48.49 13.08c-.75.21-1.28-.11-1.55-.27a1.71 1.71 0 0 1-.69-1.39v-193.78c0-.59.37-.96.53-1.12.16-.11.48-.27.91-.27h.32l124.95 28.73v71.82l-68.08 46.29zm203.61-81.49c0 2.83-1.55 5.45-3.95 6.84l-70.7 40.74.37 28.46c0 2.24-1.44 4.17-3.58 4.75l-48.86 13.19v-130.72l124.95-28.51c.59-.16 1.01.11 1.23.27.21.16.53.48.53 1.12v63.86z" class="st4"/>
  <path d="m766.04 977-.7 14.47-128.95 34.55-128.05-34.49V977l22.48 7.85.27-14.95 105.3 49.61 108.98-46.78.27 11.32zM524.64 1079.1c8.71-5.14 17.35-10.23 26.12-15.4 6.45 10.99 12.87 21.93 19.34 32.96-2.43 1.43-4.77 2.83-7.16 4.15-.23.12-.81-.15-1.08-.4-2.45-2.16-4.82-4.42-7.32-6.53-2.62-2.2-5.62-2.65-8.69-1.1-3 1.51-4.53 4.06-4.43 7.46.07 2.29 1.06 4.19 2.78 5.71 1.29 1.14 2.57 2.3 3.96 3.54-1.47.86-2.82 1.65-4.3 2.51-6.42-10.96-12.79-21.88-19.22-32.9z" class="st4"/>
  <path d="M573.76 1122.72c-5.42-.13-9.92-1.71-13.72-5.02-4.95-4.33-9.84-8.73-14.72-13.14-2.62-2.38-2.81-6.26-.52-8.79 2.29-2.53 6.01-2.75 8.7-.4 4.62 4.04 9.19 8.12 13.76 12.21 4.99 4.46 11.21 3.26 14.18-2.77 2.63-5.35 5.23-10.72 7.87-16.07 1.07-2.16 2.83-3.39 5.25-3.53 2.42-.14 4.34.84 5.62 2.89 1.15 1.83 1.33 3.84.39 5.78-2.9 6.03-5.66 12.13-8.86 18-3.89 7.15-10.28 10.52-17.95 10.84zM585.96 1082.12c-8.52-.04-15.22-6.87-15.17-15.46.06-8.37 6.89-15.04 15.36-14.99 8.41.05 15.07 6.83 15.03 15.31-.03 8.41-6.83 15.18-15.22 15.14zM541.6 1061.01c1.11 1.49 2.15 2.88 3.31 4.44-6.57 3.74-13.09 7.44-19.6 11.15-.04-.05-.08-.11-.13-.16 5.44-5.11 10.88-10.22 16.42-15.43zM702.3 1052.01c-8.99 0-16.27 7.28-16.27 16.27 0 8.98 16.27 32.7 16.27 32.7s16.27-23.72 16.27-32.7c0-8.99-7.29-16.27-16.27-16.27zm0 23.2c-4.23 0-7.65-3.42-7.65-7.65s3.42-7.65 7.65-7.65a7.65 7.65 0 1 1 0 15.3z" class="st4"/>
  <path d="M698.46 1094.76c2.22 3.72 3.84 6.22 3.84 6.22s16.27-23.72 16.27-32.7c0-.47-.02-.94-.06-1.4-.64 2.5-1.55 4.93-2.66 7.25-3.08 6.41-7.64 10.52-12.49 15.72-1.57 1.68-3.2 3.34-4.9 4.91z" class="st4"/>
  <ellipse cx="702.57" cy="1106.66" class="st4" rx="4.58" ry="1.08"/>
  <path d="M886.16 1184.04h558.16v3.82H886.16z" class="st5"/>
  <path d="m906.89 1238.16 2.46-18.51c.45-3.27 1.21-8.29 1.86-11.6h-.16c-1.58 3.46-3.49 7.54-5.36 11.05l-10.19 18.85h-3.22l-2.53-18.47c-.52-3.93-.87-7.91-1.11-11.43h-.11c-.72 3.17-1.8 8.34-2.61 11.61l-4.66 18.5h-3.97l8.88-34.28h5.38l2.72 19.66c.34 2.91.74 6.05.82 8.59h.16c1.04-2.55 2.51-5.62 3.99-8.47l10.61-19.78h5.52l-4.35 34.28h-4.13zM936.57 1238.16c-.02-1.48.23-3.81.55-6.35h-.11c-2.66 5.11-6.05 6.91-9.52 6.91-4.36 0-7.07-3.46-7.07-8.13 0-8.57 6.3-17.59 17-17.59 2.36 0 4.93.4 6.64.93l-2.51 12.82c-.81 4.28-1.15 8.68-1.04 11.4h-3.94zm2.74-21.45c-.59-.19-1.5-.35-2.93-.35-6.37 0-11.57 6.63-11.59 13.47-.02 2.75.95 5.43 4.2 5.43 3.53 0 7.67-4.59 8.89-11.13l1.43-7.42zM949.37 1238.16l6.86-36.11h4.19l-4.32 22.64h.1c.75-.86 1.66-1.8 2.3-2.48l8.67-8.65h5.21l-10.73 10.1 7.35 14.5h-4.64l-5.92-12.14-3.11 2.78-1.77 9.36h-4.19zM975.47 1238.16l4.7-24.6h4.21l-4.7 24.6h-4.21zm5.47-31.47c.02-1.63 1.25-2.86 2.77-2.86s2.51 1.11 2.51 2.65c-.05 1.66-1.23 2.84-2.86 2.84-1.48 0-2.44-1.13-2.42-2.63zM989.66 1238.16l3.29-17.44c.54-2.73.88-5.12 1.16-7.16h3.79l-.63 4.83h.1c2.21-3.46 5.52-5.39 9.12-5.39 2.92 0 6.22 1.68 6.22 6.83 0 1.1-.2 2.65-.44 3.97l-2.73 14.35h-4.21l2.69-14.21c.17-.95.33-2.1.33-3.15 0-2.47-.95-4.29-3.86-4.29-3.02 0-7.3 3.61-8.41 9.69l-2.22 11.96h-4.2zM1019.59 1243.74c1.49.95 3.94 1.61 6.53 1.61 4.14 0 7.38-2.1 8.84-8.76l.81-3.68h-.13c-2.16 3.52-5.15 5.23-8.55 5.23-4.94 0-7.49-4.16-7.49-8.52-.02-8.37 6.09-16.62 15.62-16.62 2.85 0 5.96.8 7.89 1.72l-3.77 20.33c-.99 5.21-2.4 8.8-4.96 11.01-2.46 2.13-5.79 2.73-8.59 2.73-3 0-5.83-.69-7.37-1.74l1.17-3.31zm18.9-26.52c-.78-.39-2.31-.84-4.07-.84-6.16 0-10.39 6.44-10.42 12.51-.02 2.73.97 5.9 4.71 5.9 3.63 0 7.3-4.57 8.2-9.37l1.58-8.2zM1066.93 1204.36c2.09-.42 4.57-.71 7.35-.71 3.53 0 6.08.71 7.91 2.35 1.58 1.29 2.46 3.11 2.46 5.34 0 4.33-3.5 7.54-7.38 8.55v.13c3.1.9 5.65 3.48 5.62 7.61 0 3.51-1.86 6.27-4.1 7.93-2.72 2.04-6.5 2.82-11.09 2.82-2.94 0-5.5-.18-7.1-.49l6.33-33.53zm-1.62 30.38c1.07.17 2.31.22 3.47.22 4.99.03 9.68-2.06 9.68-7.54 0-4.02-3.4-5.79-7.24-5.79h-3.43l-2.48 13.11zm3.14-16.32h3.14c4.92 0 8.7-2.55 8.7-6.72 0-3.3-2.49-4.71-6.22-4.71-1.55 0-2.85.11-3.5.31l-2.12 11.12zM1113.09 1223.23c0 7.6-5.39 15.49-13.66 15.49-6.16 0-9.6-4.57-9.6-10.1 0-8.13 5.64-15.62 13.64-15.62 6.62 0 9.62 5.02 9.62 10.23zm-18.92 5.22c0 4 2.22 6.92 5.83 6.92 4.96 0 8.73-6.43 8.73-12.15 0-2.87-1.33-6.88-5.73-6.88-5.32 0-8.83 6.47-8.83 12.11zM1142.34 1223.23c0 7.6-5.39 15.49-13.66 15.49-6.16 0-9.6-4.57-9.6-10.1 0-8.13 5.64-15.62 13.64-15.62 6.62 0 9.62 5.02 9.62 10.23zm-18.92 5.22c0 4 2.22 6.92 5.83 6.92 4.96 0 8.73-6.43 8.73-12.15 0-2.87-1.33-6.88-5.73-6.88-5.32 0-8.83 6.47-8.83 12.11zM1147.85 1238.16l6.86-36.11h4.19l-4.32 22.64h.1c.75-.86 1.66-1.8 2.3-2.48l8.67-8.65h5.21l-10.73 10.1 7.35 14.5h-4.64l-5.92-12.14-3.11 2.78-1.77 9.36h-4.19zM1173.79 1233.88c1.16.69 3.27 1.53 5.29 1.53 2.84 0 4.68-1.83 4.68-4.01 0-1.92-.86-3.12-3.42-4.54-2.85-1.57-4.45-3.75-4.45-6.27 0-4.29 3.73-7.59 8.91-7.59 2.23 0 4.2.6 5.12 1.22l-1.18 3.19c-.85-.49-2.4-1.12-4.24-1.12-2.57 0-4.39 1.6-4.39 3.69 0 1.81 1.18 2.9 3.38 4.14 2.74 1.55 4.59 3.7 4.59 6.46 0 5.17-4.2 8.1-9.39 8.1-2.65 0-5-.83-6.12-1.69l1.22-3.11zM1214 1227.31l-5.45 10.84h-4.44l17.71-34.28h4.98l4.74 34.28h-4.32l-1.38-10.84H1214zm11.52-3.35-1.33-9.9c-.19-1.78-.44-4.3-.61-6.31h-.12c-.91 2.04-1.77 4.18-2.81 6.24l-5.11 9.97h9.98zM1270.14 1205.52c-.65-.31-1.51-.48-2.47-.48-3.35 0-4.98 3.27-5.7 7.34l-.21 1.18h5.48l-.65 3.31h-5.47l-4.03 21.29h-4.21l4.05-21.29h-9.97l-4.03 21.29h-4.2l4.04-21.29h-3.28l.64-3.31h3.29l.21-1.12c.57-2.92 1.64-6 3.69-8.05 1.44-1.43 3.37-2.35 5.95-2.35 1.29 0 2.37.32 3.18.73l-1.29 3.27c-.52-.28-1.27-.49-2.03-.49-3.35 0-4.68 3.43-5.36 6.99l-.2 1.02h9.99l.24-1.31c.61-3.41 1.82-6.58 4.03-8.58 1.56-1.4 3.7-2.18 5.84-2.18 1.69 0 2.8.33 3.38.66l-.91 3.37zM1292.73 1223.23c0 7.6-5.39 15.49-13.66 15.49-6.16 0-9.6-4.57-9.6-10.1 0-8.13 5.64-15.62 13.64-15.62 6.63 0 9.62 5.02 9.62 10.23zm-18.91 5.22c0 4 2.22 6.92 5.83 6.92 4.96 0 8.73-6.43 8.73-12.15 0-2.87-1.33-6.88-5.73-6.88-5.32 0-8.84 6.47-8.83 12.11zM1298.23 1238.16l3-15.84c.61-3.2.98-6.47 1.25-8.75h3.71c-.2 1.71-.4 3.43-.68 5.34h.15c1.61-3.37 4.24-5.9 7.54-5.9.39 0 .88.03 1.21.09l-.82 4.16c-.3-.06-.67-.09-1.15-.09-3.65 0-6.9 4.43-7.97 10.14l-2.03 10.85h-4.21zM1342.81 1202.05l-5.4 28.31c-.47 2.55-.89 5.42-1.04 7.8h-3.86l.66-4.87h-.1c-2.25 3.49-5.34 5.43-8.87 5.43-4.74 0-7.35-3.9-7.35-8.95 0-8.74 6.5-16.76 15.21-16.76 1.54 0 3.28.33 4.34.84l2.21-11.8h4.2zm-7.08 15.36c-.85-.58-2.26-1.05-4.02-1.05-5.9 0-10.49 6.29-10.49 12.82 0 2.98 1.02 6.07 4.64 6.07 3.24 0 7.17-3.71 8.23-9.24l1.64-8.6zM1362.21 1238.16c-.02-1.48.23-3.81.55-6.35h-.11c-2.66 5.11-6.05 6.91-9.52 6.91-4.36 0-7.07-3.46-7.07-8.13 0-8.57 6.3-17.59 17-17.59 2.36 0 4.93.4 6.64.93l-2.51 12.82c-.81 4.28-1.15 8.68-1.04 11.4h-3.94zm2.74-21.45c-.59-.19-1.5-.35-2.93-.35-6.37 0-11.57 6.63-11.59 13.47-.02 2.75.95 5.43 4.2 5.43 3.53 0 7.67-4.59 8.89-11.13l1.43-7.42zM1385.85 1202.05l-3.25 15.96.1.03c2.18-3.31 5.34-5.04 8.65-5.04 5.39 0 7.45 4.45 7.45 8.81 0 7.57-5.47 16.9-15.33 16.9-4.33 0-7.59-1.81-7.58-6.35 0-1.2.2-2.64.43-3.82l5.3-26.5h4.23zm-5.34 26.6c-.17.84-.33 1.81-.3 3.11.02 2.34 1.36 3.63 3.98 3.63 6.37 0 10.22-7.56 10.22-13.03 0-3.05-1.33-5.86-4.7-5.86-3.63 0-7.42 3.77-8.65 9.53l-.55 2.62zM1404.27 1238.16l6.89-36.11h4.22l-6.89 36.11h-4.22zM1436.19 1236.75c-1.86 1.04-4.83 1.94-8.13 1.94-6.54 0-9.36-4.45-9.36-9.9 0-7.41 5.5-15.79 13.42-15.79 4.68 0 7.22 2.79 7.22 6.31 0 6.46-7.28 8.16-16.37 7.99-.2 1.07-.06 3.36.5 4.68.99 2.22 2.94 3.31 5.47 3.31 2.92 0 5.12-.87 6.63-1.69l.62 3.15zm-4.66-20.47c-4.02 0-7.05 3.92-8.08 7.77 6.63.08 11.82-.81 11.82-4.64 0-2.02-1.54-3.13-3.74-3.13zM929.21 951.17c12.9-3.23 32.88-5.08 52.23-5.08 18.03 0 38.7 2.91 53.18 13.23 13.6 9.14 21.72 23.3 21.72 42.65 0 25.12-11.51 44.25-27.12 56.27-16.35 12.76-39.71 18.65-64.11 18.65-7.04 0-13.08-.78-17.48-1.26l-13.8 72.21h-41.87l37.25-196.67zm24.88 89.49c4.6.92 9.28 1.53 16.57 1.53 25.73 0 42.65-16.52 42.65-36.56 0-19.21-13.92-25.49-30.48-25.49-8.04 0-13.9.57-17.42 1.37l-11.32 59.15z" class="st6"/>
  <path d="M1181.83 1024.18c-4.74 1.36-9.83 1.94-15.15 1.72-10.89-1.19-19.69-5.24-26.76-12.77-4.27-4.54-8.5-9.14-12.74-13.74-64.51 4.74-94.01 54.43-94.01 101.05 0 30.39 17.98 50.66 44.04 50.66 16.92 0 35.57-7.89 48.92-32.08h.72c-.78 10.36-1.58 20.33-1.91 28.81h39.33c-.53-18.14 2.24-46.7 5.82-65.43l11.74-58.22zm-51.22 42.24c-6.62 35.62-22.49 50.19-35.26 50.19-11.8 0-17.62-9.81-17.59-24.1.06-27.04 20.19-60.94 47.89-60.94 4.32 0 8.42.47 11.69 1.22l-6.73 33.63zM1241.27 1034.95h31.11l6.34-32.66h-31.02l7.56-40.66-28.48 6.56a9.84 9.84 0 0 1-.97 2.19c-4.54 7.95-8.97 16.04-13.66 23.93-2.38 4.04-4.79 8.09-7.34 12.05-5.76 8.95-13.19 14.6-21.8 17.4l-2.11 11.19h18.61l-11.25 57.84c-2.24 11.14-3.07 19-3.07 26.98 0 18.2 12.1 31.3 37.87 31.3 9.17 0 19.69-1.11 25.26-3.21l4.93-33.52c-3.71.53-7.98.61-11.74.61-9.31 0-12.41-5.1-12.41-12.22 0-5.15 1.22-12.69 2.41-18.45l9.76-49.33zM1254.13 1147.84l39.98-211.12h42.83l-16.11 84.29.59.06c11.98-13.33 27.18-22.04 46.24-22.04 22.67 0 36.7 14.29 36.7 39.39 0 6.89-1.17 17.91-2.74 26.18l-15.78 83.24h-42.81l15.09-79.68c1.08-5.69 1.83-11.89 1.83-18.03 0-9.6-4-16.58-14.69-16.58-14.95 0-30.21 18.36-35.71 47.65l-12.61 66.64h-42.81zM1552.83 1059.01c0 53.06-36.5 92.1-86.86 92.1-37.02 0-61.73-23.94-61.73-60.17 0-50.31 35.23-91.91 86.87-91.91 39.1 0 61.72 26.76 61.72 59.98zm-104.28 31.06c0 17.02 8.49 28.37 23.43 28.37 23.24 0 36.54-34.35 36.54-59.08 0-13.53-5.87-27.67-22.89-27.67-24.7 0-37.14 35.87-37.08 58.38zM1543.18 1147.84l39.98-211.12h42.58l-24.02 126.26h.6c4.48-5.62 8.99-11.32 13.09-16.41l37.26-44.27h52.78l-61.91 60.01 40.47 85.53h-47.78l-25.56-62.27-16.03 15.44-8.88 46.84h-42.58zM1479.46 1174.15c4.87-1.22 12.41-1.92 19.72-1.92 6.81 0 14.61 1.1 20.07 4.99 5.13 3.45 8.2 8.8 8.2 16.1 0 9.48-4.34 16.71-10.24 21.24-6.17 4.82-14.99 7.04-24.2 7.04-2.66 0-4.94-.3-6.6-.48l-5.21 27.26h-15.81l14.07-74.23zm9.38 33.79c1.74.35 3.51.58 6.26.58 9.71 0 16.1-6.24 16.1-13.8 0-7.25-5.25-9.62-11.5-9.62-3.04 0-5.25.22-6.58.52l-4.28 22.32zM1567.98 1248.4l10.44-54.95h16.16l-10.44 54.95h-16.16zm12.76-69.62c.01-5.45 4.32-9.15 9.27-9.15 4.76 0 8.12 3.13 8.12 7.95-.04 5.75-4.4 9.1-9.54 9.1-4.56.01-7.87-3.1-7.85-7.9zM1589.31 1248.4l6.97-37.05c1.38-6.95 2.23-12.97 2.99-17.9h14.27l-1.03 9.12h.22c5.16-7.15 11.93-10.35 19.21-10.35 8.98 0 14.1 5.51 14.1 15.03 0 2.48-.47 6.57-.94 9.23l-6.07 31.92h-16.16l5.73-30.39c.35-1.93.61-4.14.61-6.15 0-3.86-1.32-6.6-5.47-6.6-5.27 0-11.41 6.62-13.68 18.74l-4.59 24.41h-16.16zM1675.17 1178.09l-2.86 15.36h11.72l-2.4 12.33h-11.74l-3.69 18.63c-.45 2.17-.91 5.01-.91 6.97 0 2.68 1.17 4.61 4.69 4.61 1.43 0 3.04-.04 4.44-.23l-1.86 12.65c-2.1.8-6.08 1.22-9.54 1.22-9.72 0-14.3-4.95-14.3-11.82 0-3.01.32-5.98 1.16-10.19l4.24-21.84h-7.03l2.32-12.33h7.06l2.18-11.55 16.52-3.81z" class="st6"/>
  <path d="M1551.96 1192.46c-10.26-1.55-19.83 5.51-21.37 15.77-1.55 10.25 12.94 40.13 12.94 40.13s22.66-24.27 24.2-34.52c1.55-10.27-5.51-19.83-15.77-21.38zm-3.99 26.48a8.818 8.818 0 0 1-7.41-10.05 8.818 8.818 0 0 1 10.05-7.41c4.82.73 8.14 5.22 7.41 10.05-.73 4.82-5.23 8.14-10.05 7.41zM1165.56 971.22c-5.34 2.52-10.41 4.98-15.65 7.33-.47.23-1.59-.4-2.17-.99-4.72-4.9-9.24-10.04-14.06-14.86-5.07-5.01-11.25-6.52-17.95-3.84-6.44 2.7-10.1 7.71-10.51 14.79-.22 4.75 1.5 8.95 4.82 12.38 2.48 2.64 4.96 5.28 7.61 8.02-1.21.53-2.35 1.15-3.46 1.6-.29.25-.57.31-.85.47l-5.07 2.46-4.06-8.53-.47-.85c-9.87-20.81-19.75-41.53-29.71-62.44 19.04-9.21 37.89-18.26 57.03-27.55 11.51 24 22.92 47.91 34.5 72.01z" class="st5"/>
  <path d="M1225.87 970.49c-4.55 7.95-8.96 16.02-13.65 23.93-2.38 4.06-4.8 8.07-7.35 12.05-9.13 14.22-22.58 20.14-38.13 19.52-10.89-1.2-19.7-5.22-26.77-12.75-9.23-9.86-18.34-19.84-27.42-29.83-.44-.5-.82-1-1.15-1.53-3.61-5.31-2.95-12.41 1.65-16.85 5.05-4.91 12.63-4.7 17.62.61 6.01 6.44 12.02 12.91 17.99 19.46 2.54 2.75 5.09 5.5 7.63 8.29 5.31 5.77 11.76 7.78 17.58 6.19 4.43-1.2 8.51-4.4 11.51-9.59 6.23-10.71 12.43-21.42 18.66-32.09 2.55-4.33 6.3-6.59 11.22-6.47 4.88.12 8.6 2.47 10.82 6.95 2.03 4 2.02 8.22-.21 12.11zM1112.46 892.03c2.05 3.29 3.97 6.37 6.12 9.81-14.32 6.64-28.53 13.22-42.73 19.8l-.24-.36c12.22-9.69 24.42-19.38 36.85-29.25zM1204.66 943.97c-17.73-1.56-30.49-16.95-28.87-34.82 1.57-17.41 16.95-30.1 34.58-28.53 17.49 1.56 30.17 16.84 28.61 34.48-1.54 17.5-16.88 30.4-34.32 28.87z" class="st5"/>
  <path d="M3060.25 895.3h-84.99c-12.72 0-23.13 10.41-23.13 23.13v88.27c0 11.49 8.5 21.11 19.53 22.84 30.3-2.06 57.56-15.21 77.76-35.39 17.48-17.48 29.69-40.29 33.97-65.75v-9.97c0-11.49-8.48-21.09-19.51-22.84l-3.63-.29z" class="st2"/>
  <linearGradient id="SVGID_3_" x1="2952.126" x2="3083.385" y1="962.711" y2="962.711" gradientUnits="userSpaceOnUse">
    <stop offset="0" style="stop-color:#f15a29"/>
    <stop offset="1" style="stop-color:#f7941d"/>
  </linearGradient>
  <path d="M3083.38 918.43v88.27c0 12.72-10.41 23.13-23.13 23.13h-84.99l-3.6-.29c-11.03-1.73-19.53-11.35-19.53-22.84v-9.5c4.22-25.66 16.46-48.62 34.04-66.22 20.18-20.18 47.44-33.31 77.71-35.39 11.02 1.75 19.5 11.35 19.5 22.84z" style="fill:url(#SVGID_3_)"/>
  <path d="M3066.88 930.46c-.89-.71-2.02-.96-3.14-.71l-46.07 10.53-45.9-10.54c-1.1-.27-2.24 0-3.12.69-.89.71-1.41 1.77-1.41 2.89v69.96c0 1.2.56 2.29 1.5 3.03.67.5 1.48.77 2.29.77.35 0 .67-.04 1.02-.12l17.5-4.74c1.77-.48 2.99-2.1 2.97-3.93l-.1-8.04c0-.71.35-1.39.93-1.79l22.8-15.48v18.1c0 .81.39 1.58 1.02 2.08.48.35 1.02.54 1.6.54.23 0 .46-.04.69-.1l18.33-4.95c2.16-.6 3.66-2.56 3.62-4.82l-.1-8.4 23.9-13.78a6.052 6.052 0 0 0 3.03-5.22v-23.06c.03-1.16-.47-2.22-1.36-2.91zm-75.29 55.36c-1.48 1-2.35 2.66-2.33 4.45l.1 8.04c0 .39-.25.73-.62.83l-17.5 4.72c-.27.08-.46-.04-.56-.1a.615.615 0 0 1-.25-.5V933.3c0-.21.14-.35.19-.4.06-.04.17-.1.33-.1h.12l45.11 10.37v25.93l-24.59 16.72zm73.5-29.41c0 1.02-.56 1.97-1.43 2.47l-25.52 14.71.14 10.27c0 .81-.52 1.5-1.29 1.72l-17.64 4.76v-47.19l45.11-10.29c.21-.06.37.04.44.1.08.06.19.17.19.4v23.05z" class="st4"/>
  <path d="m3064.57 920.63-.25 5.22-46.55 12.48-46.23-12.46v-5.24l8.11 2.83.1-5.39 38.02 17.9 39.34-16.88.1 4.08zM2977.42 957.49c3.15-1.85 6.27-3.69 9.43-5.56 2.33 3.97 4.64 7.92 6.98 11.9-.88.51-1.72 1.02-2.58 1.5-.08.05-.29-.06-.39-.14-.89-.78-1.74-1.6-2.64-2.36-.94-.79-2.03-.96-3.14-.4-1.08.55-1.64 1.47-1.6 2.69.03.83.38 1.51 1 2.06.47.41.93.83 1.43 1.28-.53.31-1.02.59-1.55.91-2.31-3.96-4.62-7.9-6.94-11.88z" class="st4"/>
  <path d="M2995.16 973.24c-1.96-.05-3.58-.62-4.95-1.81-1.79-1.56-3.55-3.15-5.31-4.74-.95-.86-1.01-2.26-.19-3.17.83-.91 2.17-.99 3.14-.15 1.67 1.46 3.32 2.93 4.97 4.41 1.8 1.61 4.05 1.18 5.12-1 .95-1.93 1.89-3.87 2.84-5.8.39-.78 1.02-1.22 1.89-1.27.87-.05 1.57.3 2.03 1.04.42.66.48 1.38.14 2.09-1.05 2.18-2.04 4.38-3.2 6.5-1.41 2.56-3.71 3.78-6.48 3.9zM2999.56 958.58c-3.08-.01-5.5-2.48-5.48-5.58.02-3.02 2.49-5.43 5.55-5.41 3.04.02 5.44 2.47 5.43 5.53a5.482 5.482 0 0 1-5.5 5.46zM2983.55 950.96c.4.54.78 1.04 1.2 1.6-2.37 1.35-4.72 2.69-7.08 4.03-.02-.02-.03-.04-.05-.06 1.96-1.85 3.93-3.69 5.93-5.57zM3041.56 947.71c-3.25 0-5.87 2.63-5.87 5.87s5.87 11.81 5.87 11.81 5.87-8.56 5.87-11.81c0-3.24-2.63-5.87-5.87-5.87zm0 8.37a2.76 2.76 0 1 1-.002-5.518 2.76 2.76 0 0 1 .002 5.518z" class="st4"/>
  <path d="M3040.17 963.14c.8 1.34 1.39 2.25 1.39 2.25s5.88-8.56 5.88-11.81c0-.17-.01-.34-.02-.51-.23.9-.56 1.78-.96 2.62-1.11 2.31-2.76 3.8-4.51 5.68-.57.6-1.16 1.2-1.78 1.77z" class="st4"/>
  <ellipse cx="3041.66" cy="967.44" class="st4" rx="1.65" ry=".39"/>
  <path d="M3307.12 951.4c3.06-4.87-.45-11.22-6.2-11.22h-81.72c-.75-2-.98-3.7-.71-5.1.65-3.34 3.14-5.01 7.48-5.01.4 0 1.12.06 2.16.2l2.36-12.12c-2.36-.27-4-.41-4.94-.41-4.2 0-7.77.76-10.75 2.26.09.14.18.28.25.43.77 1.53.77 3.15-.08 4.64-1.74 3.05-3.44 6.15-5.24 9.18-.91 1.55-1.84 3.1-2.82 4.62-.27.43-.56.85-.86 1.23 0 .02 0 .04.01.06h-.06c-3.45 4.52-8.25 6.41-13.72 6.19-.15-.01-.28-.03-.42-.05-3.99-.51-7.23-2.05-9.85-4.83-.21-.22-.41-.44-.6-.66l-.03.14c-.25-.26-.49-.52-.72-.78h-15.65l1.27-6.55c.16-.75-.43-1.46-1.2-1.46h-4.94a9.23 9.23 0 0 0-9.05 7.46l-1.39 7.16c-2.09-5.07-6.7-7.61-13.85-7.61-7.21 0-13.22 2.36-18.04 7.06-4.82 4.71-7.81 10-8.95 15.87l-1.04 5.41c3.82 1.27 6.65 4.07 8.47 8.41l-8.77 4.41-2.81 14.42 39.67-20.63-6.46 33.25h14.03l10.88-55.99h.2c2.13 0 3.48.39 4.03 1.15.55.77.57 2.45.07 5.06l-9.68 49.78h14.03l10.88-55.99h24.44l-1.44 7.41c-1.34 6.88-5.55 10.32-12.63 10.32h-9.61a88.85 88.85 0 0 0-2 8.21c-1.73 8.94-.86 16.01 2.65 21.18 3.5 5.18 9.32 7.75 17.47 7.75 7.88 0 14.52-2.4 19.93-7.21 5.41-4.8 8.86-11.08 10.36-18.83 1.79-9.21.14-18.19-4.98-26.94l-1.13-1.9h43.46l-1.03 5.31a56.775 56.775 0 0 0-16.32 5.66c-5.13 2.7-10.86 6.26-17.2 10.67l-2.61 13.42 26.18 20.93.11-.1-.02.1h13.52l7.47-38.45c4.29.26 7.41 1.46 9.37 3.6 1.95 2.14 2.61 4.84 1.97 8.11-.95 4.88-3.62 7.32-8.02 7.32h-1l-2.45 12.62c.45.07 1.15.1 2.08.1 5.95 0 10.95-1.77 15.01-5.31 4.06-3.54 6.7-8.44 7.92-14.72 1.39-7.14-.24-12.87-4.87-17.18-4.64-4.3-10.51-6.55-17.61-6.75l1.03-5.31h24.71zm-178.61 18.43c-1.3-3.61-3.35-6.15-6.14-7.61.62-3.14 2.2-5.76 4.79-7.87 2.58-2.1 5.53-3.15 8.87-3.15 6.48 0 9.89 3.2 10.25 9.61l-17.77 9.02zm89.52 10.41c-.77 3.94-2.4 7.26-4.89 9.97-2.49 2.7-5.68 4.06-9.55 4.06-3.81 0-6.51-1.3-8.11-3.91-1.6-2.6-1.97-6.07-1.13-10.41l.02-.09h.4c5.41 0 10.03-1.62 13.87-4.86 3.83-3.23 6.27-7.56 7.33-12.97l.5-2.6c2.46 6.53 2.99 13.47 1.56 20.81zm42.83 12.53-15.42-12.92c7.13-5.08 13.79-8.58 19.97-10.52l-4.55 23.44z" class="st6"/>
  <path d="M3191.76 925.46c-2.05.97-3.99 1.91-6 2.81-.18.09-.61-.15-.83-.38-1.81-1.88-3.55-3.85-5.4-5.7-1.95-1.92-4.32-2.5-6.89-1.47-2.47 1.04-3.87 2.96-4.03 5.67-.08 1.82.58 3.43 1.85 4.75.95 1.01 1.9 2.02 2.92 3.08-.47.2-.9.44-1.33.61-.11.09-.22.12-.33.18l-1.94.94-1.56-3.27-.18-.33c-3.79-7.98-7.58-15.93-11.4-23.96 7.31-3.53 14.54-7.01 21.88-10.57 4.42 9.22 8.8 18.4 13.24 27.64z" class="st5"/>
  <path d="M3214.88 925.14c-1.74 3.05-3.44 6.15-5.24 9.18-.91 1.56-1.84 3.1-2.82 4.62-3.5 5.46-8.66 7.73-14.63 7.49-4.18-.46-7.56-2-10.27-4.89-3.54-3.78-7.04-7.61-10.52-11.44a4.11 4.11 0 0 1-.44-.59c-1.39-2.04-1.13-4.76.63-6.46 1.94-1.88 4.85-1.8 6.76.24 2.31 2.47 4.61 4.95 6.9 7.47.98 1.06 1.95 2.11 2.93 3.18 2.04 2.21 4.51 2.98 6.74 2.37 1.7-.46 3.27-1.69 4.42-3.68 2.39-4.11 4.77-8.22 7.16-12.31.98-1.66 2.42-2.53 4.3-2.48 1.87.05 3.3.95 4.15 2.67.78 1.52.78 3.14-.07 4.63zM3171.39 895.08c.79 1.26 1.52 2.44 2.35 3.76-5.5 2.55-10.94 5.07-16.39 7.6-.03-.05-.06-.09-.09-.14 4.68-3.72 9.36-7.44 14.13-11.22zM3206.76 915.01c-6.8-.6-11.7-6.5-11.08-13.36.6-6.68 6.5-11.55 13.27-10.94 6.71.6 11.58 6.46 10.98 13.23-.59 6.71-6.47 11.65-13.17 11.07z" class="st5"/>
  <path d="M3400.27 978.71c.24-.67.43-1.35.56-2.03.43-2.16.15-3.84-.83-5.03-.98-1.2-2.61-1.79-4.88-1.79-1.18 0-2.82.17-4.92.51-2.1.35-3.6.52-4.49.52-1.73 0-2.99-.24-3.8-.73l-.9 4.62c.95.64 2.38.95 4.31.95.93 0 2.35-.14 4.28-.41 1.92-.28 3.2-.42 3.84-.42.89 0 1.45.22 1.67.66.22.43.24 1.09.06 1.98-.01.06-.05.23-.13.52-.06.28-.11.5-.15.65h-62.16l.54-2.77a.592.592 0 0 0-.58-.69h-2.63a3.27 3.27 0 0 0-3.22 2.65l-.71 3.65c-.9-2.19-2.89-3.29-5.97-3.29-3.12 0-5.71 1.02-7.8 3.06-2.08 2.02-3.37 4.31-3.86 6.85l-.45 2.34c1.65.54 2.87 1.75 3.65 3.63l-3.78 1.9-1.21 6.23 17.11-8.91-2.79 14.36h6.05l4.7-24.17h4.11c-2.14 2.1-3.8 6.17-4.97 12.19-.29 1.67-.41 3.22-.34 4.66.06 1.45.33 2.76.81 3.93a5.795 5.795 0 0 0 2.29 2.8c1.05.67 2.37 1.01 3.96 1.01.64 0 1.19-.04 1.67-.13l1.01-5.24c-.21.03-.54.04-1 .04-2.62 0-3.47-2.36-2.56-7.09.37-1.85.72-3.4 1.09-4.66.35-1.27.82-2.53 1.38-3.77.55-1.23 1.25-2.17 2.08-2.81.56-.43 1.17-.71 1.84-.85l-.87 4.39 5.41 3.59-7.03 4.18-1.12 5.71-.04.04 3.92 1.74c.81-1.6 2.58-2.57 4.46-2.3 2.34.35 3.96 2.55 3.6 4.89-.03.25-.13.54-.27.86l2.14.95h6.04l4.7-24.17h16.3l-1.39 7.18c-1.2-2.63-3.46-3.93-6.8-3.93-2.5 0-4.62.79-6.34 2.37-1.72 1.59-2.8 3.52-3.25 5.8-.17.89-.23 1.88-.19 2.97h5.88c.01-.77.09-1.57.25-2.38.2-1.03.63-1.87 1.26-2.5.65-.64 1.5-.95 2.57-.95 2.08 0 3.49.85 4.24 2.53.75 1.69.93 3.6.51 5.73l-.06.3c-.44 2.27.04 4.09 1.45 5.45 1.41 1.36 3.28 2.03 5.61 2.03 3.49 0 6.53-1.2 9.15-3.59 2.61-2.39 4.22-5.11 4.81-8.17.52-2.7.18-4.86-1.05-6.48s-3.25-2.42-6.04-2.42c-.92 0-1.85.1-2.78.3l-1.02 5.27a10.1 10.1 0 0 1 1.85-.17c2.44 0 3.44 1.16 3 3.5-.32 1.65-1.13 3.15-2.41 4.52-1.29 1.37-2.79 2.06-4.49 2.06-.72 0-1.27-.2-1.66-.61-.38-.41-.5-.97-.37-1.69l3.33-17.11h16.43l.27-1.37c.03-.19.05-.38.05-.55a2.926 2.926 0 0 0-2.93-2.89zm-83.29 12.79c-.56-1.55-1.44-2.65-2.64-3.29.26-1.36.95-2.48 2.07-3.39 1.17-.96 2.7-1.43 4.22-1.36 2.54.13 3.88 1.51 4.03 4.14l-7.68 3.9zm37.5 10.43-7.96-3.77 6.43-3.93 1-5.14-7.36-5.53h11.46l-3.57 18.37z" class="st6"/>
  <path d="M3347.71 1002.14c-1.81-.27-3.49.97-3.76 2.78-.27 1.81 2.28 7.07 2.28 7.07s3.99-4.27 4.26-6.08c.27-1.81-.97-3.49-2.78-3.77zm-.7 4.67c-.85-.13-1.43-.92-1.31-1.77.13-.85.92-1.43 1.77-1.31.85.13 1.43.92 1.31 1.77s-.92 1.43-1.77 1.31z" class="st5"/>
  <linearGradient id="SVGID_4_" x1="2971.654" x2="2975.259" y1="1416.65" y2="1416.65" gradientUnits="userSpaceOnUse">
    <stop offset="0" style="stop-color:#000"/>
    <stop offset="1" style="stop-color:#58595b"/>
  </linearGradient>
  <path d="m2971.65 1416.51 3.6.29c-1.22-.01-2.42-.1-3.6-.29z" style="fill:url(#SVGID_4_)"/>
  <path d="M3060.25 1282.26h-84.99c-12.72 0-23.13 10.41-23.13 23.13v88.27c0 11.49 8.5 21.11 19.53 22.84 30.3-2.06 57.56-15.21 77.76-35.39 17.48-17.48 29.69-40.29 33.97-65.75v-9.97c0-11.49-8.48-21.09-19.51-22.84l-3.63-.29z" class="st2"/>
  <linearGradient id="SVGID_5_" x1="2952.126" x2="3083.385" y1="1349.671" y2="1349.671" gradientUnits="userSpaceOnUse">
    <stop offset="0" style="stop-color:#f15a29"/>
    <stop offset="1" style="stop-color:#f7941d"/>
  </linearGradient>
  <path d="M3083.38 1305.39v88.27c0 12.72-10.41 23.13-23.13 23.13h-84.99l-3.6-.29c-11.03-1.73-19.53-11.35-19.53-22.84v-9.5c4.22-25.66 16.46-48.62 34.04-66.22 20.18-20.18 47.44-33.31 77.71-35.39 11.02 1.75 19.5 11.35 19.5 22.84z" style="fill:url(#SVGID_5_)"/>
  <path d="M3066.88 1317.42c-.89-.71-2.02-.96-3.14-.71l-46.07 10.53-45.9-10.54c-1.1-.27-2.24 0-3.12.69-.89.71-1.41 1.77-1.41 2.89v69.96c0 1.2.56 2.29 1.5 3.03.67.5 1.48.77 2.29.77.35 0 .67-.04 1.02-.12l17.5-4.74c1.77-.48 2.99-2.1 2.97-3.93l-.1-8.04c0-.71.35-1.39.93-1.79l22.8-15.48v18.1c0 .81.39 1.58 1.02 2.08.48.35 1.02.54 1.6.54.23 0 .46-.04.69-.1l18.33-4.95c2.16-.6 3.66-2.56 3.62-4.82l-.1-8.4 23.9-13.78a6.052 6.052 0 0 0 3.03-5.22v-23.06c.03-1.16-.47-2.22-1.36-2.91zm-75.29 55.36c-1.48 1-2.35 2.66-2.33 4.45l.1 8.04c0 .39-.25.73-.62.83l-17.5 4.72c-.27.08-.46-.04-.56-.1a.615.615 0 0 1-.25-.5v-69.96c0-.21.14-.35.19-.4.06-.04.17-.1.33-.1h.12l45.11 10.37v25.93l-24.59 16.72zm73.5-29.41c0 1.02-.56 1.97-1.43 2.47l-25.52 14.71.14 10.27c0 .81-.52 1.5-1.29 1.72l-17.64 4.76v-47.19l45.11-10.29c.21-.06.37.04.44.1.08.06.19.17.19.4v23.05z" class="st4"/>
  <path d="m3064.57 1307.59-.25 5.22-46.55 12.48-46.23-12.46v-5.24l8.11 2.83.1-5.39 38.02 17.9 39.34-16.88.1 4.08zM2977.42 1344.45c3.15-1.85 6.27-3.69 9.43-5.56 2.33 3.97 4.64 7.92 6.98 11.9-.88.51-1.72 1.02-2.58 1.5-.08.05-.29-.06-.39-.14-.89-.78-1.74-1.6-2.64-2.36-.94-.79-2.03-.96-3.14-.4-1.08.55-1.64 1.47-1.6 2.69.03.83.38 1.51 1 2.06.47.41.93.83 1.43 1.28-.53.31-1.02.59-1.55.91-2.31-3.96-4.62-7.9-6.94-11.88z" class="st4"/>
  <path d="M2995.16 1360.2c-1.96-.05-3.58-.62-4.95-1.81-1.79-1.56-3.55-3.15-5.31-4.74-.95-.86-1.01-2.26-.19-3.17.83-.91 2.17-.99 3.14-.15 1.67 1.46 3.32 2.93 4.97 4.41 1.8 1.61 4.05 1.18 5.12-1 .95-1.93 1.89-3.87 2.84-5.8.39-.78 1.02-1.22 1.89-1.27.87-.05 1.57.3 2.03 1.04.42.66.48 1.38.14 2.09-1.05 2.18-2.04 4.38-3.2 6.5-1.41 2.56-3.71 3.78-6.48 3.9zM2999.56 1345.54c-3.08-.01-5.5-2.48-5.48-5.58.02-3.02 2.49-5.43 5.55-5.41 3.04.02 5.44 2.47 5.43 5.53a5.482 5.482 0 0 1-5.5 5.46zM2983.55 1337.92c.4.54.78 1.04 1.2 1.6-2.37 1.35-4.72 2.69-7.08 4.03-.02-.02-.03-.04-.05-.06 1.96-1.85 3.93-3.69 5.93-5.57zM3041.56 1334.67c-3.25 0-5.87 2.63-5.87 5.87s5.87 11.81 5.87 11.81 5.87-8.56 5.87-11.81c0-3.24-2.63-5.87-5.87-5.87zm0 8.37a2.76 2.76 0 1 1-.002-5.518 2.76 2.76 0 0 1 .002 5.518z" class="st4"/>
  <path d="M3040.17 1350.1c.8 1.34 1.39 2.25 1.39 2.25s5.88-8.56 5.88-11.81c0-.17-.01-.34-.02-.51-.23.9-.56 1.78-.96 2.62-1.11 2.31-2.76 3.8-4.51 5.68-.57.6-1.16 1.2-1.78 1.77z" class="st4"/>
  <ellipse cx="3041.66" cy="1354.4" class="st4" rx="1.65" ry=".39"/>
  <path d="M3107.93 1382.33h201.5v1.38h-201.5z" class="st5"/>
  <path d="m3115.42 1401.87.89-6.68c.16-1.18.44-2.99.67-4.19h-.06c-.57 1.25-1.26 2.72-1.94 3.99l-3.68 6.8h-1.16l-.91-6.67c-.19-1.42-.31-2.86-.4-4.13h-.04c-.26 1.14-.65 3.01-.94 4.19l-1.68 6.68h-1.43l3.2-12.37h1.94l.98 7.1c.12 1.05.27 2.18.3 3.1h.06c.38-.92.91-2.03 1.44-3.06l3.83-7.14h1.99l-1.57 12.37h-1.49zM3126.14 1401.87c-.01-.53.08-1.37.2-2.29h-.04c-.96 1.84-2.19 2.5-3.44 2.5-1.57 0-2.55-1.25-2.55-2.93 0-3.09 2.28-6.35 6.14-6.35.85 0 1.78.15 2.4.34l-.91 4.63c-.29 1.55-.42 3.13-.38 4.12h-1.42zm.98-7.75c-.21-.07-.54-.13-1.06-.13-2.3 0-4.18 2.39-4.19 4.86-.01.99.34 1.96 1.52 1.96 1.28 0 2.77-1.66 3.21-4.02l.52-2.67zM3130.76 1401.87l2.48-13.04h1.51l-1.56 8.17h.04c.27-.31.6-.65.83-.89l3.13-3.12h1.88l-3.87 3.65 2.65 5.23h-1.68l-2.14-4.38-1.12 1-.64 3.38h-1.51zM3140.18 1401.87l1.7-8.88h1.52l-1.7 8.88h-1.52zm1.97-11.36c.01-.59.45-1.03 1-1.03s.91.4.91.96c-.02.6-.44 1.02-1.03 1.02-.54 0-.89-.41-.88-.95zM3145.3 1401.87l1.19-6.3c.2-.99.32-1.85.42-2.58h1.37l-.23 1.74h.04c.8-1.25 1.99-1.95 3.29-1.95 1.05 0 2.25.61 2.25 2.47 0 .4-.07.96-.16 1.43l-.99 5.18h-1.52l.97-5.13c.06-.34.12-.76.12-1.14 0-.89-.34-1.55-1.39-1.55-1.09 0-2.63 1.3-3.04 3.5l-.8 4.32h-1.52zM3156.1 1403.88c.54.34 1.42.58 2.36.58 1.49 0 2.67-.76 3.19-3.16l.29-1.33h-.05c-.78 1.27-1.86 1.89-3.09 1.89-1.78 0-2.7-1.5-2.71-3.08-.01-3.02 2.2-6 5.64-6 1.03 0 2.15.29 2.85.62l-1.36 7.34c-.36 1.88-.87 3.18-1.79 3.98-.89.77-2.09.99-3.1.99-1.08 0-2.11-.25-2.66-.63l.43-1.2zm6.83-9.57c-.28-.14-.83-.3-1.47-.3-2.22 0-3.75 2.32-3.76 4.52-.01.98.35 2.13 1.7 2.13 1.31 0 2.63-1.65 2.96-3.38l.57-2.97zM3173.2 1389.67c.75-.15 1.65-.26 2.65-.26 1.27 0 2.2.26 2.85.85.57.46.89 1.12.89 1.93 0 1.56-1.26 2.72-2.67 3.09v.05c1.12.33 2.04 1.26 2.03 2.75 0 1.27-.67 2.26-1.48 2.86-.98.74-2.35 1.02-4.01 1.02-1.06 0-1.99-.07-2.56-.18l2.3-12.11zm-.59 10.97c.39.06.84.08 1.25.08 1.8.01 3.49-.74 3.49-2.72 0-1.45-1.23-2.09-2.61-2.09h-1.24l-.89 4.73zm1.13-5.9h1.13c1.78 0 3.14-.92 3.14-2.42 0-1.19-.9-1.7-2.25-1.7-.56 0-1.03.04-1.26.11l-.76 4.01zM3189.86 1396.48c0 2.74-1.95 5.59-4.93 5.59-2.22 0-3.47-1.65-3.47-3.65 0-2.93 2.04-5.64 4.92-5.64 2.4.01 3.48 1.82 3.48 3.7zm-6.83 1.88c0 1.44.8 2.5 2.1 2.5 1.79 0 3.15-2.32 3.15-4.39 0-1.04-.48-2.48-2.07-2.48-1.91 0-3.18 2.34-3.18 4.37zM3200.42 1396.48c0 2.74-1.95 5.59-4.93 5.59-2.22 0-3.47-1.65-3.47-3.65 0-2.93 2.04-5.64 4.92-5.64 2.4.01 3.48 1.82 3.48 3.7zm-6.83 1.88c0 1.44.8 2.5 2.1 2.5 1.79 0 3.15-2.32 3.15-4.39 0-1.04-.48-2.48-2.07-2.48-1.91 0-3.18 2.34-3.18 4.37zM3202.41 1401.87l2.48-13.04h1.51l-1.56 8.17h.04c.27-.31.6-.65.83-.89l3.13-3.12h1.88l-3.87 3.65 2.65 5.23h-1.68l-2.14-4.38-1.12 1-.64 3.38h-1.51zM3211.77 1400.32c.42.25 1.18.55 1.91.55 1.03 0 1.69-.66 1.69-1.45 0-.69-.31-1.13-1.23-1.64-1.03-.57-1.61-1.35-1.61-2.26 0-1.55 1.35-2.74 3.22-2.74.81 0 1.52.22 1.85.44l-.43 1.15c-.31-.18-.87-.4-1.53-.4-.93 0-1.58.58-1.58 1.33 0 .65.43 1.05 1.22 1.5.99.56 1.66 1.33 1.66 2.33 0 1.87-1.52 2.93-3.39 2.93-.96 0-1.81-.3-2.21-.61l.43-1.13zM3226.29 1397.95l-1.97 3.91h-1.6l6.39-12.37h1.8l1.71 12.37h-1.56l-.5-3.91h-4.27zm4.15-1.21-.48-3.58c-.07-.64-.16-1.55-.22-2.28h-.04c-.33.74-.64 1.51-1.01 2.25l-1.85 3.6h3.6zM3246.56 1390.09c-.23-.11-.55-.17-.89-.17-1.21 0-1.8 1.18-2.06 2.65l-.08.43h1.98l-.23 1.2h-1.97l-1.46 7.68h-1.52l1.46-7.68h-3.6l-1.45 7.68h-1.52l1.46-7.68h-1.18l.23-1.2h1.19l.08-.4c.21-1.05.59-2.16 1.33-2.91.52-.52 1.22-.85 2.15-.85.46 0 .86.12 1.15.26l-.46 1.18c-.19-.1-.46-.18-.73-.18-1.21 0-1.69 1.24-1.93 2.52l-.07.37h3.61l.09-.47c.22-1.23.66-2.38 1.45-3.1.56-.51 1.34-.79 2.11-.79.61 0 1.01.12 1.22.24l-.36 1.22zM3254.71 1396.48c0 2.74-1.95 5.59-4.93 5.59-2.22 0-3.47-1.65-3.47-3.65 0-2.93 2.04-5.64 4.92-5.64 2.4.01 3.48 1.82 3.48 3.7zm-6.83 1.88c0 1.44.8 2.5 2.1 2.5 1.79 0 3.15-2.32 3.15-4.39 0-1.04-.48-2.48-2.07-2.48-1.91 0-3.18 2.34-3.18 4.37zM3256.7 1401.87l1.08-5.72c.22-1.16.35-2.34.45-3.16h1.34c-.07.62-.14 1.24-.25 1.93h.05c.58-1.22 1.53-2.13 2.72-2.13.14 0 .32.01.44.03l-.3 1.5c-.11-.02-.24-.03-.41-.03-1.32 0-2.49 1.6-2.88 3.66l-.73 3.92h-1.51zM3272.79 1388.83l-1.95 10.22c-.17.92-.32 1.96-.37 2.81h-1.39l.24-1.76h-.04c-.81 1.26-1.93 1.96-3.2 1.96-1.71 0-2.65-1.41-2.65-3.23 0-3.16 2.35-6.05 5.49-6.05.56 0 1.18.12 1.57.3l.8-4.26h1.5zm-2.56 5.55c-.31-.21-.82-.38-1.45-.38-2.13 0-3.79 2.27-3.79 4.63 0 1.07.37 2.19 1.68 2.19 1.17 0 2.59-1.34 2.97-3.34l.59-3.1zM3279.79 1401.87c-.01-.53.08-1.37.2-2.29h-.04c-.96 1.84-2.18 2.5-3.44 2.5-1.57 0-2.55-1.25-2.55-2.93 0-3.09 2.28-6.35 6.14-6.35.85 0 1.78.15 2.4.34l-.91 4.63c-.29 1.55-.42 3.13-.38 4.12h-1.42zm.99-7.75c-.21-.07-.54-.13-1.06-.13-2.3 0-4.18 2.39-4.19 4.86-.01.99.34 1.96 1.52 1.96 1.28 0 2.77-1.66 3.21-4.02l.52-2.67zM3288.33 1388.83l-1.17 5.76.04.01c.79-1.2 1.93-1.82 3.12-1.82 1.95 0 2.69 1.61 2.69 3.18 0 2.73-1.97 6.1-5.53 6.1-1.56 0-2.74-.65-2.74-2.29 0-.43.07-.95.16-1.38l1.91-9.57h1.52zm-1.93 9.6c-.06.3-.12.65-.11 1.12.01.84.49 1.31 1.44 1.31 2.3 0 3.69-2.73 3.69-4.7 0-1.1-.48-2.12-1.7-2.12-1.31 0-2.68 1.36-3.12 3.44l-.2.95zM3294.98 1401.87l2.49-13.04h1.52l-2.49 13.04h-1.52zM3306.5 1401.36c-.67.38-1.74.7-2.94.7-2.36 0-3.38-1.61-3.38-3.57 0-2.67 1.99-5.7 4.84-5.7 1.69 0 2.61 1.01 2.61 2.28 0 2.33-2.63 2.95-5.91 2.88-.07.38-.02 1.21.18 1.69.36.8 1.06 1.19 1.97 1.19 1.06 0 1.85-.31 2.39-.61l.24 1.14zm-1.68-7.39c-1.45 0-2.54 1.42-2.92 2.81 2.39.03 4.27-.29 4.27-1.68 0-.73-.56-1.13-1.35-1.13zM3123.48 1298.26c4.66-1.17 11.87-1.83 18.86-1.83 6.51 0 13.97 1.05 19.2 4.77 4.91 3.3 7.84 8.41 7.84 15.4 0 9.07-4.16 15.97-9.79 20.31-5.9 4.61-14.33 6.73-23.14 6.73-2.54 0-4.72-.28-6.31-.45l-4.98 26.07h-15.12l13.44-71zm8.98 32.31c1.66.33 3.35.55 5.98.55 9.29 0 15.4-5.96 15.4-13.2 0-6.94-5.02-9.2-11-9.2-2.9 0-5.02.21-6.29.5l-4.09 21.35z" class="st0"/>
  <path d="M3214.67 1324.62c-1.71.49-3.55.7-5.47.62-3.93-.43-7.11-1.89-9.66-4.61-1.54-1.64-3.07-3.3-4.6-4.96-23.29 1.71-33.94 19.65-33.94 36.48 0 10.97 6.49 18.29 15.9 18.29 6.11 0 12.84-2.85 17.66-11.58h.26c-.28 3.74-.57 7.34-.69 10.4h14.2c-.19-6.55.81-16.86 2.1-23.62l4.24-21.02zm-18.49 15.25c-2.39 12.86-8.12 18.12-12.73 18.12-4.26 0-6.36-3.54-6.35-8.7.02-9.76 7.29-22 17.29-22 1.56 0 3.04.17 4.22.44l-2.43 12.14zM3236.13 1328.51h11.23l2.29-11.79h-11.2l2.73-14.68-10.28 2.37c-.08.27-.2.53-.35.79-1.64 2.87-3.24 5.79-4.93 8.64-.86 1.46-1.73 2.92-2.65 4.35-2.08 3.23-4.76 5.27-7.87 6.28l-.76 4.04h6.72l-4.06 20.88c-.81 4.02-1.11 6.86-1.11 9.74 0 6.57 4.37 11.3 13.67 11.3 3.31 0 7.11-.4 9.12-1.16l1.78-12.1c-1.34.19-2.88.22-4.24.22-3.36 0-4.48-1.84-4.48-4.41 0-1.86.44-4.58.87-6.66l3.52-17.81zM3240.77 1369.26l14.43-76.22h15.46l-5.82 30.43.21.02c4.32-4.81 9.81-7.96 16.69-7.96 8.18 0 13.25 5.16 13.25 14.22 0 2.49-.42 6.47-.99 9.45l-5.7 30.05h-15.45l5.45-28.76c.39-2.05.66-4.29.66-6.51 0-3.47-1.44-5.99-5.3-5.99-5.4 0-10.91 6.63-12.89 17.2l-4.55 24.06h-15.45zM3348.61 1337.19c0 19.15-13.18 33.25-31.36 33.25-13.37 0-22.29-8.64-22.29-21.72 0-18.16 12.72-33.18 31.36-33.18 14.12 0 22.29 9.66 22.29 21.65zm-37.65 11.22c0 6.15 3.06 10.24 8.46 10.24 8.39 0 13.19-12.4 13.19-21.33 0-4.88-2.12-9.99-8.26-9.99-8.92 0-13.41 12.95-13.39 21.08zM3345.12 1369.26l14.43-76.22h15.37l-8.67 45.58h.21c1.62-2.03 3.25-4.09 4.73-5.92l13.45-15.98h19.05l-22.35 21.67 14.61 30.88h-17.25l-9.23-22.48-5.79 5.57-3.21 16.91h-15.35zM3322.12 1378.76c1.76-.44 4.48-.69 7.12-.69 2.46 0 5.27.4 7.25 1.8 1.85 1.25 2.96 3.18 2.96 5.81 0 3.42-1.57 6.03-3.7 7.67-2.23 1.74-5.41 2.54-8.74 2.54-.96 0-1.78-.11-2.38-.17l-1.88 9.84h-5.71l5.08-26.8zm3.39 12.2c.63.13 1.27.21 2.26.21 3.51 0 5.81-2.25 5.81-4.98 0-2.62-1.9-3.47-4.15-3.47-1.1 0-1.89.08-2.37.19l-1.55 8.05zM3354.08 1405.57l3.77-19.84h5.83l-3.77 19.84h-5.83zm4.6-25.14c0-1.97 1.56-3.3 3.35-3.3 1.72 0 2.93 1.13 2.93 2.87-.01 2.08-1.59 3.29-3.45 3.29-1.64 0-2.83-1.12-2.83-2.86zM3361.78 1405.57l2.52-13.38c.5-2.51.81-4.68 1.08-6.46h5.15l-.37 3.29h.08c1.86-2.58 4.31-3.74 6.93-3.74 3.24 0 5.09 1.99 5.09 5.43 0 .89-.17 2.37-.34 3.33l-2.19 11.52h-5.83l2.07-10.97c.13-.7.22-1.5.22-2.22 0-1.39-.48-2.38-1.97-2.38-1.9 0-4.12 2.39-4.94 6.77l-1.66 8.81h-5.84zM3392.77 1380.19l-1.03 5.54h4.23l-.87 4.45h-4.24l-1.33 6.73c-.16.78-.33 1.81-.33 2.51 0 .97.42 1.66 1.69 1.66.51 0 1.1-.01 1.6-.08l-.67 4.57c-.76.29-2.19.44-3.44.44-3.51 0-5.16-1.79-5.16-4.27 0-1.09.11-2.16.42-3.68l1.53-7.88h-2.54l.84-4.45h2.55l.79-4.17 5.96-1.37z" class="st0"/>
  <path d="M3348.3 1385.37a6.785 6.785 0 0 0-7.72 5.69c-.56 3.7 4.67 14.49 4.67 14.49s8.18-8.76 8.74-12.46a6.78 6.78 0 0 0-5.69-7.72zm-1.45 9.56a3.194 3.194 0 0 1-2.68-3.63 3.194 3.194 0 0 1 3.63-2.68c1.74.26 2.94 1.89 2.68 3.63a3.187 3.187 0 0 1-3.63 2.68zM3208.8 1305.5c-1.93.91-3.76 1.8-5.65 2.65-.17.08-.57-.15-.78-.36-1.7-1.77-3.34-3.63-5.08-5.36-1.83-1.81-4.06-2.35-6.48-1.39-2.32.98-3.65 2.78-3.79 5.34-.08 1.72.54 3.23 1.74 4.47.9.95 1.79 1.9 2.75 2.89-.44.19-.85.42-1.25.58-.1.09-.2.11-.31.17l-1.83.89-1.47-3.08-.17-.31c-3.56-7.51-7.13-14.99-10.73-22.54 6.87-3.33 13.68-6.59 20.59-9.95 4.16 8.67 8.28 17.3 12.46 26z" class="st5"/>
  <path d="M3230.57 1305.24c-1.64 2.87-3.24 5.78-4.93 8.64-.86 1.46-1.73 2.92-2.65 4.35-3.29 5.13-8.15 7.27-13.76 7.05-3.93-.43-7.11-1.89-9.66-4.6-3.33-3.56-6.62-7.16-9.9-10.77-.16-.18-.3-.36-.42-.55-1.3-1.92-1.06-4.48.6-6.08 1.82-1.77 4.56-1.7 6.36.22 2.17 2.32 4.34 4.66 6.5 7.02.92.99 1.84 1.99 2.75 2.99 1.92 2.08 4.24 2.81 6.34 2.23 1.6-.43 3.07-1.59 4.16-3.46 2.25-3.87 4.49-7.73 6.74-11.59.92-1.56 2.28-2.38 4.05-2.33 1.76.04 3.1.89 3.91 2.51.72 1.44.72 2.96-.09 4.37zM3189.63 1276.91c.74 1.19 1.43 2.3 2.21 3.54-5.17 2.4-10.3 4.77-15.43 7.15-.03-.04-.06-.09-.09-.13 4.42-3.49 8.83-6.99 13.31-10.56zM3222.92 1295.66c-6.4-.56-11.01-6.12-10.42-12.57.57-6.29 6.12-10.87 12.48-10.3 6.31.56 10.89 6.08 10.33 12.45-.56 6.32-6.1 10.98-12.39 10.42z" class="st5"/>
  <path d="M3060.25 1441.22h-84.99c-12.72 0-23.13 10.41-23.13 23.13v88.27c0 11.49 8.5 21.11 19.53 22.84 30.3-2.06 57.56-15.21 77.76-35.39 17.48-17.48 29.69-40.29 33.97-65.75v-9.97c0-11.49-8.48-21.09-19.51-22.84l-3.63-.29z" class="st2"/>
  <linearGradient id="SVGID_6_" x1="2952.126" x2="3083.385" y1="1508.633" y2="1508.633" gradientUnits="userSpaceOnUse">
    <stop offset="0" style="stop-color:#f15a29"/>
    <stop offset="1" style="stop-color:#f7941d"/>
  </linearGradient>
  <path d="M3083.38 1464.35v88.27c0 12.72-10.41 23.13-23.13 23.13h-84.99l-3.6-.29c-11.03-1.73-19.53-11.35-19.53-22.84v-9.5c4.22-25.66 16.46-48.62 34.04-66.22 20.18-20.18 47.44-33.31 77.71-35.39 11.02 1.75 19.5 11.35 19.5 22.84z" style="fill:url(#SVGID_6_)"/>
  <path d="M3066.88 1476.38c-.89-.71-2.02-.96-3.14-.71l-46.07 10.53-45.9-10.54c-1.1-.27-2.24 0-3.12.69-.89.71-1.41 1.77-1.41 2.89v69.96c0 1.2.56 2.29 1.5 3.03.67.5 1.48.77 2.29.77.35 0 .67-.04 1.02-.12l17.5-4.74c1.77-.48 2.99-2.1 2.97-3.93l-.1-8.04c0-.71.35-1.39.93-1.79l22.8-15.48v18.1c0 .81.39 1.58 1.02 2.08.48.35 1.02.54 1.6.54.23 0 .46-.04.69-.1l18.33-4.95c2.16-.6 3.66-2.56 3.62-4.82l-.1-8.4 23.9-13.78a6.052 6.052 0 0 0 3.03-5.22v-23.06a3.55 3.55 0 0 0-1.36-2.91zm-75.29 55.37c-1.48 1-2.35 2.66-2.33 4.45l.1 8.04c0 .39-.25.73-.62.83l-17.5 4.72c-.27.08-.46-.04-.56-.1a.615.615 0 0 1-.25-.5v-69.96c0-.21.14-.35.19-.4.06-.04.17-.1.33-.1h.12l45.11 10.37v25.93l-24.59 16.72zm73.5-29.42c0 1.02-.56 1.97-1.43 2.47l-25.52 14.71.14 10.27c0 .81-.52 1.5-1.29 1.72l-17.64 4.76v-47.19l45.11-10.29c.21-.06.37.04.44.1.08.06.19.17.19.4v23.05z" class="st4"/>
  <path d="m3064.57 1466.55-.25 5.22-46.55 12.48-46.23-12.46v-5.24l8.11 2.83.1-5.39 38.02 17.91 39.34-16.89.1 4.09zM2977.42 1503.41c3.15-1.85 6.27-3.69 9.43-5.56 2.33 3.97 4.64 7.92 6.98 11.9-.88.51-1.72 1.02-2.58 1.5-.08.05-.29-.06-.39-.14-.89-.78-1.74-1.6-2.64-2.36-.94-.79-2.03-.96-3.14-.4-1.08.55-1.64 1.47-1.6 2.69.03.83.38 1.51 1 2.06.47.41.93.83 1.43 1.28-.53.31-1.02.59-1.55.91-2.31-3.96-4.62-7.9-6.94-11.88z" class="st4"/>
  <path d="M2995.16 1519.16c-1.96-.05-3.58-.62-4.95-1.81-1.79-1.56-3.55-3.15-5.31-4.74-.95-.86-1.01-2.26-.19-3.17.83-.91 2.17-.99 3.14-.15 1.67 1.46 3.32 2.93 4.97 4.41 1.8 1.61 4.05 1.18 5.12-1 .95-1.93 1.89-3.87 2.84-5.8.39-.78 1.02-1.22 1.89-1.27.87-.05 1.57.3 2.03 1.04.42.66.48 1.38.14 2.09-1.05 2.18-2.04 4.38-3.2 6.5-1.41 2.56-3.71 3.78-6.48 3.9zM2999.56 1504.5c-3.08-.01-5.5-2.48-5.48-5.58.02-3.02 2.49-5.43 5.55-5.41 3.04.02 5.44 2.47 5.43 5.53a5.482 5.482 0 0 1-5.5 5.46zM2983.55 1496.88c.4.54.78 1.04 1.2 1.6-2.37 1.35-4.72 2.69-7.08 4.03-.02-.02-.03-.04-.05-.06 1.96-1.85 3.93-3.69 5.93-5.57zM3041.56 1493.63c-3.25 0-5.87 2.63-5.87 5.87s5.87 11.81 5.87 11.81 5.87-8.56 5.87-11.81c0-3.24-2.63-5.87-5.87-5.87zm0 8.37a2.76 2.76 0 1 1-.002-5.518 2.76 2.76 0 0 1 .002 5.518z" class="st4"/>
  <path d="M3040.17 1509.06c.8 1.34 1.39 2.25 1.39 2.25s5.88-8.56 5.88-11.81c0-.17-.01-.34-.02-.51-.23.9-.56 1.78-.96 2.62-1.11 2.31-2.76 3.8-4.51 5.68-.57.61-1.16 1.2-1.78 1.77z" class="st4"/>
  <ellipse cx="3041.66" cy="1513.36" class="st4" rx="1.65" ry=".39"/>
  <path d="M3307.12 1497.32c3.06-4.87-.45-11.22-6.2-11.22h-81.72c-.75-2-.98-3.7-.71-5.1.65-3.34 3.14-5.01 7.48-5.01.4 0 1.12.06 2.16.2l2.36-12.12c-2.36-.27-4-.41-4.94-.41-4.2 0-7.77.76-10.75 2.26.09.14.18.28.25.43.77 1.53.77 3.15-.08 4.64-1.74 3.05-3.44 6.15-5.24 9.18-.91 1.55-1.84 3.1-2.82 4.62-.27.43-.56.85-.86 1.23 0 .02 0 .04.01.06h-.06c-3.45 4.52-8.25 6.41-13.72 6.19-.15-.01-.28-.03-.42-.05-3.99-.51-7.23-2.05-9.85-4.83-.21-.22-.41-.44-.6-.66l-.03.14c-.25-.26-.49-.52-.72-.78h-15.65l1.27-6.55c.16-.75-.43-1.46-1.2-1.46h-4.94a9.23 9.23 0 0 0-9.05 7.46l-1.39 7.16c-2.09-5.07-6.7-7.61-13.85-7.61-7.21 0-13.22 2.36-18.04 7.06-4.82 4.71-7.81 10-8.95 15.87l-1.04 5.41c3.82 1.27 6.65 4.07 8.47 8.41l-8.77 4.41-2.81 14.42 39.67-20.63-6.46 33.25h14.03l10.88-55.99h.2c2.13 0 3.48.39 4.03 1.15.55.77.57 2.45.07 5.06l-9.68 49.78h14.03l10.88-55.99h24.44l-1.44 7.41c-1.34 6.88-5.55 10.32-12.63 10.32h-9.61a88.85 88.85 0 0 0-2 8.21c-1.73 8.94-.86 16.01 2.65 21.18 3.5 5.18 9.32 7.75 17.47 7.75 7.88 0 14.52-2.4 19.93-7.21 5.41-4.8 8.86-11.08 10.36-18.83 1.79-9.21.14-18.19-4.98-26.94l-1.13-1.9h43.46l-1.03 5.31c-5.75 1.06-11.19 2.95-16.32 5.66s-10.86 6.26-17.2 10.66l-2.61 13.42 26.18 20.93.11-.1-.02.1h13.52l7.47-38.45c4.29.26 7.41 1.46 9.37 3.6 1.95 2.14 2.61 4.84 1.97 8.11-.95 4.88-3.62 7.32-8.02 7.32h-1l-2.45 12.62c.45.07 1.15.1 2.08.1 5.95 0 10.95-1.77 15.01-5.31s6.7-8.44 7.92-14.72c1.39-7.14-.24-12.87-4.87-17.18-4.64-4.3-10.51-6.55-17.61-6.75l1.03-5.31h24.71zm-178.61 18.43c-1.3-3.61-3.35-6.15-6.14-7.61.62-3.14 2.2-5.76 4.79-7.87 2.58-2.1 5.53-3.15 8.87-3.15 6.48 0 9.89 3.2 10.25 9.61l-17.77 9.02zm89.52 10.42c-.77 3.94-2.4 7.26-4.89 9.97-2.49 2.7-5.68 4.06-9.55 4.06-3.81 0-6.51-1.3-8.11-3.91-1.6-2.6-1.97-6.07-1.13-10.41l.02-.09h.4c5.41 0 10.03-1.62 13.87-4.86 3.83-3.23 6.27-7.56 7.33-12.97l.5-2.6c2.46 6.52 2.99 13.46 1.56 20.81zm42.83 12.52-15.42-12.92c7.13-5.08 13.79-8.58 19.97-10.52l-4.55 23.44z" class="st0"/>
  <path d="M3191.76 1471.38c-2.05.97-3.99 1.91-6 2.81-.18.09-.61-.15-.83-.38-1.81-1.88-3.55-3.85-5.4-5.7-1.95-1.92-4.32-2.5-6.89-1.47-2.47 1.04-3.87 2.96-4.03 5.67-.08 1.82.58 3.43 1.85 4.75.95 1.01 1.9 2.02 2.92 3.08-.47.2-.9.44-1.33.61-.11.09-.22.12-.33.18l-1.94.94-1.56-3.27-.18-.33c-3.79-7.98-7.58-15.93-11.4-23.96 7.31-3.53 14.54-7.01 21.88-10.57 4.42 9.22 8.8 18.4 13.24 27.64z" class="st5"/>
  <path d="M3214.88 1471.06c-1.74 3.05-3.44 6.15-5.24 9.18-.91 1.56-1.84 3.1-2.82 4.62-3.5 5.46-8.66 7.73-14.63 7.49-4.18-.46-7.56-2-10.27-4.89-3.54-3.78-7.04-7.61-10.52-11.44a4.11 4.11 0 0 1-.44-.59c-1.39-2.04-1.13-4.76.63-6.46 1.94-1.88 4.85-1.8 6.76.24 2.31 2.47 4.61 4.95 6.9 7.47.98 1.06 1.95 2.11 2.93 3.18 2.04 2.21 4.51 2.98 6.74 2.37 1.7-.46 3.27-1.69 4.42-3.68 2.39-4.11 4.77-8.22 7.16-12.31.98-1.66 2.42-2.53 4.3-2.48 1.87.05 3.3.95 4.15 2.67.78 1.52.78 3.14-.07 4.63zM3171.39 1441c.79 1.26 1.52 2.44 2.35 3.76-5.5 2.55-10.94 5.07-16.39 7.6-.03-.05-.06-.09-.09-.14 4.68-3.72 9.36-7.43 14.13-11.22zM3206.76 1460.93c-6.8-.6-11.7-6.5-11.08-13.36.6-6.68 6.5-11.55 13.27-10.94 6.71.6 11.58 6.46 10.98 13.23-.59 6.71-6.47 11.66-13.17 11.07z" class="st5"/>
  <path d="M3400.27 1524.63c.24-.67.43-1.35.56-2.03.43-2.16.15-3.84-.83-5.03-.98-1.2-2.61-1.79-4.88-1.79-1.18 0-2.82.17-4.92.51-2.1.35-3.6.52-4.49.52-1.73 0-2.99-.24-3.8-.73l-.9 4.62c.95.64 2.38.95 4.31.95.93 0 2.35-.14 4.28-.41 1.92-.28 3.2-.42 3.84-.42.89 0 1.45.22 1.67.66.22.43.24 1.09.06 1.98-.01.06-.05.23-.13.52-.06.28-.11.5-.15.65h-62.16l.54-2.77a.592.592 0 0 0-.58-.69h-2.63a3.27 3.27 0 0 0-3.22 2.65l-.71 3.65c-.9-2.19-2.89-3.29-5.97-3.29-3.12 0-5.71 1.02-7.8 3.06-2.08 2.02-3.37 4.31-3.86 6.85l-.45 2.34c1.65.54 2.87 1.75 3.65 3.63l-3.78 1.9-1.21 6.23 17.11-8.91-2.79 14.36h6.05l4.7-24.17h4.11c-2.14 2.1-3.8 6.17-4.97 12.19-.29 1.67-.41 3.22-.34 4.66.06 1.45.33 2.76.81 3.93a5.795 5.795 0 0 0 2.29 2.8c1.05.67 2.37 1.01 3.96 1.01.64 0 1.19-.04 1.67-.13l1.01-5.24c-.21.03-.54.04-1 .04-2.62 0-3.47-2.36-2.56-7.09.37-1.85.72-3.4 1.09-4.66.35-1.27.82-2.53 1.38-3.77.55-1.23 1.25-2.17 2.08-2.81.56-.43 1.17-.71 1.84-.85l-.87 4.39 5.41 3.59-7.03 4.18-1.12 5.71-.04.04 3.92 1.74c.81-1.6 2.58-2.57 4.46-2.3 2.34.35 3.96 2.55 3.6 4.89-.03.25-.13.54-.27.86l2.14.95h6.04l4.7-24.17h16.3l-1.39 7.18c-1.2-2.63-3.46-3.93-6.8-3.93-2.5 0-4.62.79-6.34 2.37-1.72 1.59-2.8 3.52-3.25 5.8-.17.89-.23 1.88-.19 2.97h5.88c.01-.77.09-1.57.25-2.38.2-1.03.63-1.87 1.26-2.5.65-.64 1.5-.95 2.57-.95 2.08 0 3.49.85 4.24 2.53.75 1.69.93 3.6.51 5.73l-.06.3c-.44 2.27.04 4.09 1.45 5.45 1.41 1.36 3.28 2.03 5.61 2.03 3.49 0 6.53-1.2 9.15-3.59 2.61-2.39 4.22-5.11 4.81-8.17.52-2.7.18-4.86-1.05-6.48s-3.25-2.42-6.04-2.42c-.92 0-1.85.1-2.78.3l-1.02 5.27a10.1 10.1 0 0 1 1.85-.17c2.44 0 3.44 1.16 3 3.5-.32 1.65-1.13 3.15-2.41 4.52-1.29 1.37-2.79 2.06-4.49 2.06-.72 0-1.27-.2-1.66-.61-.38-.41-.5-.97-.37-1.69l3.33-17.11h16.43l.27-1.37c.03-.19.05-.38.05-.55a2.926 2.926 0 0 0-2.93-2.89zm-83.29 12.8c-.56-1.55-1.44-2.65-2.64-3.29.26-1.36.95-2.48 2.07-3.39 1.17-.96 2.7-1.43 4.22-1.36 2.54.13 3.88 1.51 4.03 4.14l-7.68 3.9zm37.5 10.42-7.96-3.77 6.43-3.93 1-5.14-7.36-5.53h11.46l-3.57 18.37z" class="st0"/>
  <path d="M3347.71 1548.06c-1.81-.27-3.49.97-3.76 2.78-.27 1.81 2.28 7.07 2.28 7.07s3.99-4.27 4.26-6.08c.27-1.81-.97-3.49-2.78-3.77zm-.7 4.67c-.85-.13-1.43-.92-1.31-1.77.13-.85.92-1.43 1.77-1.31.85.13 1.43.92 1.31 1.77-.13.85-.92 1.44-1.77 1.31z" class="st5"/>
</svg>
